# xmcd
#
# Track frame offsets:
#	150
#	15160
#	27722
#	46735
#	64805
#	77785
#	97495
#	121995
#	133590
#	147970
#	160650
#	180102
#	193940
#	205540
#	226472
#
# Disc length: 3176 seconds
#
# Revision: 0
# Processed by: cddbd v1.5.2PL0 Copyright (c) Steve Scherf et al.
# Submitted via: audiograbber 1.83.01
#
DISCID=c60c660f
DTITLE=Roky Erickson and The Aliens - The Evil One
DYEAR=1981
DGENRE=Rock
TTITLE0=Two Headed Dog [Red Temple Prayer]
TTITLE1=I Think Of Demons
TTITLE2=Creature With The Atom Brain
TTITLE3=The Wind And More
TTITLE4=Don't Shake Me Lucifer
TTITLE5=Bloody Hammer
TTITLE6=Stand For The Fire Demon
TTITLE7=Click Your Fingers Applauding The Play
TTITLE8=If You Have Ghosts
TTITLE9=I Walked With A Zombie
TTITLE10=Night Of The Vampire
TTITLE11=It's A Cold Night For Alligators
TTITLE12=Mine Mine Mind
TTITLE13=Sputnik
TTITLE14=White Faces
EXTD=
EXTT0=
EXTT1=
EXTT2=
EXTT3=
EXTT4=
EXTT5=
EXTT6=
EXTT7=
EXTT8=
EXTT9=
EXTT10=
EXTT11=
EXTT12=
EXTT13=
EXTT14=
PLAYORDER=
